<?xml version="1.0" encoding="UTF-8"?>
<svg id="_レイヤー_1" data-name="レイヤー 1" xmlns="http://www.w3.org/2000/svg" viewBox="0 0 525.21 525.22">
  <defs>
    <style>
      .cls-1 {
        fill: #969696;
      }
    </style>
  </defs>
  <path class="cls-1" d="M495.45,263.45h-99.51c-.47,0-.84-.38-.84-.84s.38-.84.84-.84h99.51c.47,0,.84.38.84.84s-.38.84-.84.84Z"/>
  <path class="cls-1" d="M391.39,228.95c-.37,0-.71-.25-.82-.63-.12-.45.15-.91.6-1.04l48.06-12.88c.45-.11.91.15,1.03.6.12.45-.15.91-.6,1.04l-48.06,12.88c-.07.02-.15.03-.22.03Z"/>
  <path class="cls-1" d="M356.88,169.18c-.22,0-.43-.08-.6-.25-.33-.33-.33-.86,0-1.19l35.18-35.18c.33-.33.86-.33,1.19,0s.33.86,0,1.19l-35.18,35.18c-.16.16-.38.25-.6.25Z"/>
  <path class="cls-1" d="M297.11,134.67c-.07,0-.15,0-.22-.03-.45-.12-.72-.58-.6-1.04l12.88-48.06c.12-.45.58-.71,1.03-.6.45.12.72.58.6,1.04l-12.88,48.06c-.1.38-.44.63-.82.63Z"/>
  <path class="cls-1" d="M228.1,134.67c-.37,0-.71-.25-.82-.63l-12.88-48.06c-.12-.45.15-.91.6-1.04.45-.12.91.15,1.03.6l12.88,48.06c.12.45-.15.91-.6,1.04-.07.02-.15.03-.22.03Z"/>
  <path class="cls-1" d="M168.33,169.18c-.22,0-.43-.08-.6-.25l-35.18-35.18c-.33-.33-.33-.86,0-1.19s.86-.33,1.19,0l35.18,35.18c.33.33.33.86,0,1.19-.16.16-.38.25-.6.25Z"/>
  <path class="cls-1" d="M133.83,228.95c-.07,0-.15,0-.22-.03l-48.06-12.88c-.45-.12-.72-.58-.6-1.04.12-.45.58-.71,1.03-.6l48.06,12.88c.45.12.72.58.6,1.04-.1.38-.44.63-.82.63Z"/>
  <path class="cls-1" d="M85.76,310.84c-.37,0-.71-.25-.82-.63-.12-.45.15-.91.6-1.04l48.06-12.88c.45-.12.91.15,1.03.6.12.45-.15.91-.6,1.04l-48.06,12.88c-.07.02-.15.03-.22.03Z"/>
  <path class="cls-1" d="M133.15,392.91c-.22,0-.43-.08-.6-.25-.33-.33-.33-.86,0-1.19l35.18-35.18c.33-.33.86-.33,1.19,0s.33.86,0,1.19l-35.18,35.18c-.16.16-.38.25-.6.25Z"/>
  <path class="cls-1" d="M215.22,440.3c-.07,0-.15,0-.22-.03-.45-.12-.72-.58-.6-1.04l12.88-48.06c.12-.45.58-.72,1.03-.6.45.12.72.58.6,1.04l-12.88,48.06c-.1.38-.44.63-.82.63Z"/>
  <path class="cls-1" d="M309.99,440.3c-.37,0-.71-.25-.82-.63l-12.88-48.06c-.12-.45.15-.91.6-1.04.45-.12.91.15,1.03.6l12.88,48.06c.12.45-.15.91-.6,1.04-.07.02-.15.03-.22.03Z"/>
  <path class="cls-1" d="M392.06,392.91c-.22,0-.43-.08-.6-.25l-35.18-35.18c-.33-.33-.33-.86,0-1.19s.86-.33,1.19,0l35.18,35.18c.33.33.33.86,0,1.19-.16.16-.38.25-.6.25Z"/>
  <path class="cls-1" d="M439.45,310.84c-.07,0-.15,0-.22-.03l-48.06-12.88c-.45-.12-.72-.58-.6-1.04.12-.45.58-.71,1.03-.6l48.06,12.88c.45.12.72.58.6,1.04-.1.38-.44.63-.82.63Z"/>
  <path class="cls-1" d="M378.07,196.79c-.29,0-.58-.15-.73-.42-.23-.4-.09-.92.31-1.15l86.18-49.76c.4-.24.92-.1,1.15.31.23.4.09.92-.31,1.15l-86.18,49.76c-.13.08-.28.11-.42.11Z"/>
  <path class="cls-1" d="M329.27,147.99c-.14,0-.29-.04-.42-.11-.4-.23-.54-.75-.31-1.15l49.76-86.18c.23-.4.75-.54,1.15-.31.4.23.54.75.31,1.15l-49.76,86.18c-.16.27-.44.42-.73.42Z"/>
  <path class="cls-1" d="M262.61,130.13c-.47,0-.84-.38-.84-.84V29.77c0-.47.38-.84.84-.84s.84.38.84.84v99.51c0,.47-.38.84-.84.84Z"/>
  <path class="cls-1" d="M195.95,147.99c-.29,0-.58-.15-.73-.42l-49.76-86.18c-.23-.4-.09-.92.31-1.15.4-.24.92-.09,1.15.31l49.76,86.18c.23.4.09.92-.31,1.15-.13.08-.28.11-.42.11Z"/>
  <path class="cls-1" d="M147.15,196.79c-.14,0-.29-.04-.42-.11l-86.18-49.76c-.4-.23-.54-.75-.31-1.15s.75-.55,1.15-.31l86.18,49.76c.4.23.54.75.31,1.15-.16.27-.44.42-.73.42Z"/>
  <path class="cls-1" d="M129.28,263.45H29.77c-.47,0-.84-.38-.84-.84s.38-.84.84-.84h99.51c.47,0,.84.38.84.84s-.38.84-.84.84Z"/>
  <path class="cls-1" d="M60.96,379.87c-.29,0-.58-.15-.73-.42-.23-.4-.09-.92.31-1.15l86.18-49.76c.4-.24.92-.1,1.15.31.23.4.09.92-.31,1.15l-86.18,49.76c-.13.08-.28.11-.42.11Z"/>
  <path class="cls-1" d="M146.19,465.1c-.14,0-.29-.04-.42-.11-.4-.23-.54-.75-.31-1.15l49.76-86.18c.23-.4.75-.55,1.15-.31.4.23.54.75.31,1.15l-49.76,86.18c-.16.27-.44.42-.73.42Z"/>
  <path class="cls-1" d="M262.61,496.29c-.47,0-.84-.38-.84-.84v-99.51c0-.47.38-.84.84-.84s.84.38.84.84v99.51c0,.47-.38.84-.84.84Z"/>
  <path class="cls-1" d="M379.03,465.1c-.29,0-.58-.15-.73-.42l-49.76-86.18c-.23-.4-.09-.92.31-1.15.4-.24.92-.1,1.15.31l49.76,86.18c.23.4.09.92-.31,1.15-.13.08-.28.11-.42.11Z"/>
  <path class="cls-1" d="M464.25,379.87c-.14,0-.29-.04-.42-.11l-86.18-49.76c-.4-.23-.54-.75-.31-1.15.23-.4.75-.55,1.15-.31l86.18,49.76c.4.23.54.75.31,1.15-.16.27-.44.42-.73.42Z"/>
  <path class="cls-1" d="M520.89,261.57c.24,0,.41-.18.41-.39v-1.02c0-.21.18-.39.4-.39h1.25c.24,0,.4.18.4.39v1.02c0,.21.19.39.41.39h1.05c.22,0,.41.18.41.39v1.21c0,.21-.19.39-.41.39h-14.21c-.22,0-.41-.18-.41-.39v-1.21c0-.21.19-.39.41-.39h10.3Z"/>
  <g>
    <path class="cls-1" d="M477.65,118.5c.2-.12.26-.36.15-.54l-.51-.88c-.11-.18-.04-.43.15-.54l1.08-.62c.2-.12.44-.05.55.14l.51.88c.11.18.36.25.55.14l.91-.52c.19-.11.44-.05.55.14l.61,1.05c.11.18.03.44-.16.54l-12.31,7.11c-.19.11-.44.05-.55-.14l-.61-1.05c-.11-.18-.04-.43.15-.54l8.92-5.15Z"/>
    <path class="cls-1" d="M487.45,129.74c-.19.11-.27.35-.15.54l.5.87c.11.2.05.42-.15.54l-9.1,5.25c-.2.12-.43.06-.55-.14l-.5-.87c-.12-.2-.36-.25-.55-.14l-.91.52c-.19.11-.44.05-.55-.14l-2.41-4.17c-.11-.18-.04-.43.15-.54l.91-.52c.19-.11.26-.36.15-.54l-.51-.88c-.11-.18-.04-.41.16-.53l9.1-5.25c.2-.12.43-.06.54.13l.51.88c.11.18.36.25.55.14l.91-.52c.19-.11.44-.05.55.14l2.41,4.17c.11.18.04.43-.15.54l-.91.52ZM486.47,130.06c.19-.11.27-.34.15-.54l-2.21-3.82c-.11-.18-.36-.25-.55-.14l-8.74,5.05c-.19.11-.26.36-.16.54l2.21,3.82c.11.2.36.25.55.14l8.74-5.05ZM479.95,131.98c-.19.11-.44.05-.55-.14l-.61-1.05c-.11-.18-.04-.43.15-.54l2.69-1.55c.19-.11.44-.05.55.14l.61,1.05c.11.18.03.43-.16.54l-2.69,1.55Z"/>
    <path class="cls-1" d="M492.87,139.12c-.19.11-.27.34-.16.54l.5.86c.12.2.05.43-.15.54l-9.1,5.25c-.2.12-.43.06-.55-.14l-.5-.86c-.11-.2-.36-.25-.55-.14l-.91.52c-.19.11-.44.05-.55-.14l-2.41-4.17c-.11-.18-.04-.44.15-.54l.91-.52c.19-.11.26-.36.15-.54l-.51-.88c-.11-.18-.04-.41.16-.53l9.1-5.25c.2-.12.43-.06.54.13l.51.88c.11.18.36.25.55.14l.91-.52c.19-.11.44-.05.55.14l2.41,4.17c.11.18.03.43-.16.54l-.91.52ZM491.88,139.44c.19-.11.27-.34.15-.54l-2.2-3.82c-.11-.18-.36-.25-.55-.14l-8.74,5.05c-.19.11-.26.36-.15.54l2.2,3.82c.11.2.36.25.55.14l8.74-5.05ZM485.37,141.36c-.19.11-.44.04-.55-.14l-.61-1.05c-.11-.18-.04-.43.15-.54l2.69-1.55c.19-.11.44-.05.55.14l.61,1.05c.11.18.04.44-.15.54l-2.69,1.55Z"/>
    <path class="cls-1" d="M498.28,148.49c-.19.11-.27.34-.15.54l.5.87c.11.2.05.43-.15.54l-9.1,5.25c-.2.12-.43.06-.55-.14l-.5-.87c-.11-.2-.36-.25-.55-.14l-.91.52c-.19.11-.44.05-.55-.14l-2.41-4.18c-.11-.18-.03-.43.16-.54l.91-.52c.19-.11.26-.36.15-.54l-.51-.88c-.11-.18-.04-.41.16-.53l9.1-5.25c.2-.12.43-.06.54.12l.51.88c.11.18.36.25.55.14l.91-.52c.19-.11.44-.05.55.14l2.41,4.17c.11.18.03.44-.16.54l-.91.52ZM497.3,148.82c.19-.11.27-.34.15-.54l-2.2-3.82c-.11-.18-.36-.25-.55-.14l-8.74,5.05c-.19.11-.26.36-.15.54l2.2,3.82c.11.2.36.25.55.14l8.74-5.05ZM490.78,150.74c-.19.11-.44.05-.55-.14l-.61-1.05c-.11-.18-.04-.43.15-.54l2.69-1.55c.19-.11.44-.05.55.14l.61,1.05c.11.18.04.43-.15.54l-2.69,1.55Z"/>
  </g>
  <g>
    <path class="cls-1" d="M381.47,32.99c.12-.2.05-.44-.14-.55l-.88-.51c-.18-.11-.25-.36-.14-.55l.63-1.08c.12-.2.36-.26.54-.15l.88.51c.18.11.43.03.54-.16l.52-.91c.11-.19.36-.26.54-.16l1.05.61c.18.11.25.36.14.55l-7.11,12.31c-.11.19-.36.26-.54.16l-1.05-.61c-.18-.11-.25-.36-.14-.55l5.15-8.92Z"/>
    <path class="cls-1" d="M395.58,37.82c-.11.19-.06.43.14.55l.87.5c.2.12.26.34.14.55l-5.25,9.1c-.12.2-.34.27-.54.16l-.87-.5c-.2-.12-.43-.04-.54.15l-.52.91c-.11.19-.36.26-.54.15l-4.17-2.41c-.18-.11-.25-.36-.14-.55l.52-.91c.11-.19.05-.44-.14-.55l-.88-.51c-.18-.11-.24-.34-.12-.54l5.25-9.1c.12-.2.34-.27.53-.16l.88.51c.18.11.43.03.54-.15l.52-.91c.11-.19.36-.26.54-.15l4.17,2.41c.18.11.25.36.14.55l-.52.91ZM394.89,38.6c.11-.19.06-.43-.14-.55l-3.82-2.21c-.18-.11-.43-.04-.54.15l-5.05,8.74c-.11.19-.05.44.14.55l3.82,2.21c.2.12.43.03.54-.16l5.05-8.74ZM390.21,43.52c-.11.19-.36.26-.54.15l-1.05-.61c-.18-.11-.25-.36-.14-.55l1.55-2.69c.11-.19.36-.26.54-.16l1.05.61c.18.11.25.36.14.55l-1.55,2.69Z"/>
    <path class="cls-1" d="M404.96,43.24c-.11.19-.06.43.14.55l.87.5c.2.12.26.34.14.55l-5.25,9.1c-.12.2-.34.27-.54.16l-.87-.5c-.2-.11-.43-.04-.54.15l-.52.91c-.11.19-.36.26-.54.16l-4.17-2.41c-.18-.11-.25-.36-.14-.55l.52-.91c.11-.19.05-.44-.14-.55l-.88-.51c-.18-.11-.24-.34-.12-.54l5.25-9.1c.12-.2.34-.27.53-.16l.88.51c.18.11.43.03.54-.16l.52-.91c.11-.19.36-.26.54-.16l4.17,2.41c.18.11.25.36.14.55l-.52.91ZM404.27,44.01c.11-.19.06-.43-.14-.55l-3.82-2.2c-.18-.11-.43-.04-.54.15l-5.05,8.74c-.11.19-.05.44.14.55l3.82,2.2c.2.12.43.04.54-.15l5.05-8.74ZM399.59,48.93c-.11.19-.36.26-.54.15l-1.05-.61c-.18-.11-.25-.36-.14-.55l1.55-2.69c.11-.19.36-.26.54-.16l1.05.61c.18.11.25.36.14.55l-1.55,2.69Z"/>
  </g>
  <g>
    <path class="cls-1" d="M256.16,4.32c0-.24-.18-.41-.39-.41h-1.02c-.21,0-.39-.18-.39-.4v-1.25c0-.24.18-.4.39-.4h1.02c.21,0,.39-.19.39-.41V.41c0-.22.18-.41.39-.41h1.21c.21,0,.39.19.39.41v14.21c0,.22-.18.41-.39.41h-1.21c-.21,0-.39-.19-.39-.41V4.32Z"/>
    <path class="cls-1" d="M270.79,1.45c0,.22.16.41.39.41h1c.23,0,.39.17.39.4v10.5c0,.24-.16.41-.39.41h-1c-.23,0-.39.18-.39.4v1.05c0,.22-.18.41-.39.41h-4.82c-.21,0-.39-.19-.39-.41v-1.05c0-.22-.18-.4-.39-.4h-1.02c-.21,0-.38-.17-.38-.41V2.26c0-.24.16-.4.38-.4h1.02c.21,0,.39-.19.39-.41V.41c0-.22.18-.41.39-.41h4.82c.21,0,.39.19.39.41v1.05ZM270.58,2.46c0-.22-.16-.4-.39-.4h-4.41c-.21,0-.39.18-.39.4v10.1c0,.22.18.41.39.41h4.41c.23,0,.39-.19.39-.41V2.46ZM268.99,9.07c0,.22-.18.4-.39.4h-1.21c-.21,0-.39-.18-.39-.4v-3.11c0-.22.18-.41.39-.41h1.21c.21,0,.39.19.39.41v3.11Z"/>
  </g>
  <path class="cls-1" d="M132.57,39.44c-.12-.2-.36-.26-.54-.16l-.88.51c-.18.11-.43.04-.54-.15l-.63-1.08c-.12-.2-.05-.44.14-.55l.88-.51c.18-.11.25-.36.14-.55l-.52-.91c-.11-.19-.05-.44.14-.55l1.05-.61c.18-.11.43-.03.54.16l7.11,12.31c.11.19.05.44-.14.55l-1.05.61c-.18.11-.43.03-.54-.16l-5.15-8.92Z"/>
  <g>
    <path class="cls-1" d="M30.29,148.43c-.2-.12-.44-.05-.55.14l-.51.88c-.11.18-.36.25-.55.14l-1.08-.63c-.2-.12-.26-.36-.15-.54l.51-.88c.11-.18.04-.43-.16-.54l-.9-.52c-.19-.11-.26-.36-.16-.54l.61-1.05c.11-.18.36-.25.55-.14l12.31,7.11c.19.11.26.36.15.54l-.61,1.05c-.11.18-.36.25-.55.14l-8.92-5.15Z"/>
    <path class="cls-1" d="M35.12,134.32c.19.11.43.06.55-.14l.5-.86c.11-.2.34-.26.55-.14l9.1,5.25c.2.12.27.34.16.54l-.5.87c-.12.2-.04.43.15.54l.91.52c.19.11.26.36.15.54l-2.41,4.17c-.11.18-.36.25-.55.14l-.91-.52c-.19-.11-.44-.05-.55.14l-.51.88c-.11.18-.34.24-.54.12l-9.1-5.25c-.2-.12-.27-.34-.16-.53l.51-.88c.11-.18.03-.43-.16-.54l-.91-.52c-.19-.11-.26-.36-.15-.54l2.41-4.17c.11-.18.36-.25.55-.14l.91.52ZM35.89,135.01c-.19-.11-.43-.06-.55.14l-2.21,3.82c-.11.18-.04.43.15.54l8.74,5.05c.19.11.44.05.55-.14l2.21-3.82c.11-.2.03-.43-.16-.54l-8.74-5.05ZM40.81,139.69c.19.11.26.36.15.54l-.61,1.05c-.11.18-.36.25-.55.14l-2.69-1.55c-.19-.11-.26-.36-.16-.54l.61-1.05c.11-.18.36-.25.55-.14l2.69,1.55Z"/>
    <path class="cls-1" d="M40.53,124.94c.19.11.43.06.55-.14l.5-.87c.12-.2.34-.26.55-.14l9.1,5.25c.2.12.27.34.16.54l-.5.87c-.11.2-.04.43.15.54l.91.52c.19.11.26.36.16.54l-2.41,4.17c-.11.18-.36.25-.55.14l-.91-.52c-.19-.11-.44-.05-.55.14l-.51.88c-.11.18-.34.24-.54.12l-9.1-5.25c-.2-.12-.27-.34-.16-.53l.51-.88c.11-.18.04-.44-.15-.54l-.91-.52c-.19-.11-.26-.36-.16-.54l2.41-4.17c.11-.18.36-.25.55-.14l.91.52ZM41.3,125.64c-.19-.11-.43-.06-.55.14l-2.2,3.82c-.11.18-.04.43.15.54l8.74,5.05c.19.11.44.05.55-.14l2.21-3.82c.12-.2.03-.43-.16-.54l-8.74-5.05ZM46.22,130.31c.19.11.26.36.15.54l-.61,1.05c-.11.18-.36.25-.55.14l-2.69-1.55c-.19-.11-.26-.36-.16-.54l.61-1.05c.11-.18.36-.25.55-.14l2.69,1.55Z"/>
    <path class="cls-1" d="M45.95,115.57c.19.11.43.06.55-.14l.5-.87c.11-.2.34-.26.55-.14l9.1,5.25c.2.12.27.34.16.54l-.5.86c-.12.2-.04.43.15.54l.91.52c.19.11.26.36.16.54l-2.41,4.18c-.11.18-.36.25-.55.14l-.91-.52c-.19-.11-.44-.05-.55.14l-.51.88c-.11.18-.34.24-.54.12l-9.1-5.25c-.2-.12-.27-.34-.16-.53l.51-.88c.11-.18.03-.43-.16-.54l-.91-.52c-.19-.11-.26-.36-.16-.54l2.41-4.17c.11-.18.36-.25.55-.14l.91.52ZM46.72,116.26c-.19-.11-.43-.06-.55.14l-2.2,3.82c-.11.18-.04.43.15.54l8.74,5.05c.19.11.44.05.55-.14l2.21-3.82c.11-.2.03-.43-.16-.54l-8.74-5.05ZM51.64,120.93c.19.11.26.36.15.54l-.61,1.05c-.11.18-.36.25-.55.14l-2.69-1.55c-.19-.11-.26-.36-.15-.54l.61-1.05c.11-.18.36-.25.55-.14l2.69,1.55Z"/>
  </g>
  <g>
    <path class="cls-1" d="M4.32,274.47c-.24,0-.41.18-.41.39v1.02c0,.21-.18.39-.4.39h-1.25c-.24,0-.4-.18-.4-.39v-1.02c0-.21-.19-.39-.41-.39H.41c-.22,0-.41-.18-.41-.39v-1.21c0-.21.19-.39.41-.39h14.21c.22,0,.41.18.41.39v1.21c0,.21-.19.39-.41.39H4.32Z"/>
    <path class="cls-1" d="M1.45,259.84c.22,0,.41-.16.41-.39v-1c0-.23.17-.39.4-.39h10.5c.24,0,.41.16.41.39v1c0,.23.18.39.4.39h1.05c.22,0,.41.18.41.39v4.82c0,.21-.19.39-.41.39h-1.05c-.22,0-.4.18-.4.39v1.02c0,.21-.17.38-.41.38H2.26c-.24,0-.4-.16-.4-.38v-1.02c0-.21-.19-.39-.41-.39H.41c-.22,0-.41-.18-.41-.39v-4.82c0-.21.19-.39.41-.39h1.05ZM2.46,260.05c-.22,0-.4.16-.4.39v4.41c0,.21.18.39.4.39h10.1c.22,0,.41-.18.41-.39v-4.41c0-.23-.19-.39-.41-.39H2.46ZM9.07,261.64c.22,0,.4.18.4.39v1.21c0,.21-.18.39-.4.39h-3.11c-.22,0-.41-.18-.41-.39v-1.21c0-.21.19-.39.41-.39h3.11Z"/>
    <path class="cls-1" d="M1.45,249.01c.22,0,.41-.16.41-.39v-1c0-.23.17-.39.4-.39h10.5c.24,0,.41.16.41.39v1c0,.23.18.39.4.39h1.05c.22,0,.41.18.41.39v4.82c0,.21-.19.39-.41.39h-1.05c-.22,0-.4.18-.4.39v1.02c0,.21-.17.38-.41.38H2.26c-.24,0-.4-.16-.4-.38v-1.02c0-.21-.19-.39-.41-.39H.41c-.22,0-.41-.18-.41-.39v-4.82c0-.21.19-.39.41-.39h1.05ZM2.46,249.22c-.22,0-.4.16-.4.39v4.41c0,.21.18.39.4.39h10.1c.22,0,.41-.18.41-.39v-4.41c0-.23-.19-.39-.41-.39H2.46ZM9.07,250.81c.22,0,.4.18.4.39v1.21c0,.21-.18.39-.4.39h-3.11c-.22,0-.41-.18-.41-.39v-1.21c0-.21.19-.39.41-.39h3.11Z"/>
  </g>
  <g>
    <path class="cls-1" d="M42.15,397.34c-.2.12-.26.36-.16.54l.51.88c.11.18.04.43-.15.54l-1.08.63c-.2.12-.44.04-.55-.14l-.51-.88c-.11-.18-.36-.25-.55-.14l-.91.52c-.19.11-.44.05-.55-.14l-.61-1.05c-.11-.18-.03-.43.16-.54l12.31-7.11c.19-.11.44-.05.55.14l.61,1.05c.11.18.03.43-.16.54l-8.92,5.15Z"/>
    <path class="cls-1" d="M32.35,386.1c.19-.11.27-.34.16-.54l-.5-.87c-.11-.2-.05-.43.15-.54l9.1-5.25c.2-.12.43-.06.55.14l.5.86c.11.2.36.25.55.14l.91-.52c.19-.11.44-.05.55.14l2.41,4.18c.11.18.03.43-.16.54l-.91.52c-.19.11-.26.36-.15.54l.51.88c.11.18.04.41-.16.53l-9.1,5.25c-.2.12-.43.06-.54-.12l-.51-.88c-.11-.18-.36-.25-.55-.14l-.91.52c-.19.11-.44.05-.55-.14l-2.41-4.17c-.11-.18-.03-.43.16-.54l.91-.52ZM33.33,385.78c-.19.11-.27.34-.15.54l2.2,3.82c.11.18.36.25.55.14l8.74-5.05c.19-.11.26-.36.16-.54l-2.2-3.82c-.12-.2-.36-.25-.55-.14l-8.74,5.05ZM39.84,383.85c.19-.11.44-.05.55.14l.61,1.05c.11.18.04.43-.15.54l-2.69,1.55c-.19.11-.44.05-.55-.14l-.61-1.05c-.11-.18-.04-.43.15-.54l2.69-1.55Z"/>
  </g>
  <path class="cls-1" d="M134.36,486.81c-.12.2-.05.44.14.55l.88.51c.18.11.25.36.14.55l-.63,1.09c-.12.2-.36.26-.54.15l-.88-.51c-.18-.11-.43-.03-.54.16l-.52.91c-.11.19-.36.26-.54.16l-1.05-.61c-.18-.11-.25-.36-.14-.55l7.11-12.31c.11-.19.36-.26.54-.16l1.05.61c.18.11.25.36.14.55l-5.15,8.92Z"/>
  <g>
    <path class="cls-1" d="M279.89,520.89c0,.24.18.41.39.41h1.02c.21,0,.39.18.39.4v1.25c0,.24-.18.4-.39.4h-1.02c-.21,0-.39.19-.39.41v1.05c0,.22-.18.41-.39.41h-1.21c-.21,0-.39-.19-.39-.41v-14.21c0-.22.18-.41.39-.41h1.21c.21,0,.39.19.39.41v10.3Z"/>
    <path class="cls-1" d="M265.25,523.76c0-.22-.16-.41-.39-.41h-1c-.23,0-.39-.17-.39-.4v-10.5c0-.24.16-.41.39-.41h1c.23,0,.39-.18.39-.4v-1.05c0-.22.18-.41.39-.41h4.82c.21,0,.39.19.39.41v1.05c0,.22.18.4.39.4h1.02c.21,0,.38.17.38.41v10.5c0,.24-.16.4-.38.4h-1.02c-.21,0-.39.19-.39.41v1.05c0,.22-.18.41-.39.41h-4.82c-.21,0-.39-.19-.39-.41v-1.05ZM265.47,522.75c0,.22.16.4.39.4h4.41c.21,0,.39-.18.39-.4v-10.1c0-.22-.18-.41-.39-.41h-4.41c-.23,0-.39.19-.39.41v10.1ZM267.06,516.15c0-.22.18-.4.39-.4h1.21c.21,0,.39.18.39.4v3.11c0,.22-.18.41-.39.41h-1.21c-.21,0-.39-.19-.39-.41v-3.11Z"/>
    <path class="cls-1" d="M254.42,523.76c0-.22-.16-.41-.39-.41h-1c-.23,0-.39-.17-.39-.4v-10.5c0-.24.16-.41.39-.41h1c.23,0,.39-.18.39-.4v-1.05c0-.22.18-.41.39-.41h4.82c.21,0,.39.19.39.41v1.05c0,.22.18.4.39.4h1.02c.21,0,.38.17.38.41v10.5c0,.24-.16.4-.38.4h-1.02c-.21,0-.39.19-.39.41v1.05c0,.22-.18.41-.39.41h-4.82c-.21,0-.39-.19-.39-.41v-1.05ZM254.64,522.75c0,.22.16.4.39.4h4.41c.21,0,.39-.18.39-.4v-10.1c0-.22-.18-.41-.39-.41h-4.41c-.23,0-.39.19-.39.41v10.1ZM256.23,516.15c0-.22.18-.4.39-.4h1.21c.21,0,.39.18.39.4v3.11c0,.22-.18.41-.39.41h-1.21c-.21,0-.39-.19-.39-.41v-3.11Z"/>
    <path class="cls-1" d="M243.59,523.76c0-.22-.16-.41-.39-.41h-1c-.23,0-.39-.17-.39-.4v-10.5c0-.24.16-.41.39-.41h1c.23,0,.39-.18.39-.4v-1.05c0-.22.18-.41.39-.41h4.82c.21,0,.39.19.39.41v1.05c0,.22.18.4.39.4h1.02c.21,0,.38.17.38.41v10.5c0,.24-.16.4-.38.4h-1.02c-.21,0-.39.19-.39.41v1.05c0,.22-.18.41-.39.41h-4.82c-.21,0-.39-.19-.39-.41v-1.05ZM243.81,522.75c0,.22.16.4.39.4h4.41c.21,0,.39-.18.39-.4v-10.1c0-.22-.18-.41-.39-.41h-4.41c-.23,0-.39.19-.39.41v10.1ZM245.4,516.15c0-.22.18-.4.39-.4h1.21c.21,0,.39.18.39.4v3.11c0,.22-.18.41-.39.41h-1.21c-.21,0-.39-.19-.39-.41v-3.11Z"/>
  </g>
  <g>
    <path class="cls-1" d="M402.02,480.36c.12.2.36.26.54.15l.88-.51c.18-.11.43-.04.54.15l.63,1.08c.12.2.05.44-.14.55l-.88.51c-.18.11-.25.36-.14.55l.52.91c.11.19.05.44-.14.55l-1.05.61c-.18.11-.43.04-.54-.15l-7.11-12.31c-.11-.19-.05-.44.14-.55l1.05-.61c.18-.11.43-.03.54.16l5.15,8.92Z"/>
    <path class="cls-1" d="M390.79,490.16c-.11-.19-.34-.27-.54-.16l-.87.5c-.2.12-.43.05-.54-.15l-5.25-9.1c-.12-.2-.06-.43.14-.55l.87-.5c.2-.12.25-.36.14-.55l-.52-.91c-.11-.19-.05-.44.14-.55l4.17-2.41c.18-.11.43-.04.54.16l.52.91c.11.19.36.26.54.15l.88-.51c.18-.11.41-.04.53.16l5.25,9.1c.12.2.06.43-.12.54l-.88.51c-.18.11-.25.36-.14.55l.52.9c.11.19.05.44-.14.55l-4.17,2.41c-.18.11-.43.03-.54-.16l-.52-.91ZM390.47,489.18c.11.19.34.27.54.15l3.82-2.21c.18-.11.25-.36.14-.55l-5.05-8.74c-.11-.19-.36-.26-.54-.15l-3.82,2.2c-.2.12-.25.36-.14.55l5.05,8.74ZM388.54,482.66c-.11-.19-.05-.44.14-.55l1.05-.61c.18-.11.43-.04.54.15l1.55,2.69c.11.19.05.44-.14.55l-1.05.61c-.18.11-.43.03-.54-.16l-1.55-2.69Z"/>
    <path class="cls-1" d="M381.41,495.58c-.11-.19-.34-.27-.54-.15l-.87.5c-.2.12-.42.05-.54-.15l-5.25-9.1c-.12-.2-.06-.43.14-.55l.87-.5c.2-.11.25-.36.14-.55l-.52-.91c-.11-.19-.05-.44.14-.55l4.17-2.41c.18-.11.43-.03.54.16l.52.91c.11.19.36.26.54.15l.88-.51c.18-.11.41-.04.53.16l5.25,9.1c.12.2.06.43-.12.54l-.88.51c-.18.11-.25.36-.14.55l.52.91c.11.19.05.44-.14.55l-4.18,2.41c-.18.11-.43.03-.54-.16l-.52-.91ZM381.09,494.59c.11.19.34.27.54.16l3.82-2.21c.18-.11.25-.36.14-.55l-5.05-8.74c-.11-.19-.36-.26-.54-.16l-3.82,2.2c-.2.12-.25.36-.14.55l5.05,8.74ZM379.16,488.08c-.11-.19-.05-.44.14-.54l1.05-.61c.18-.11.43-.04.54.15l1.55,2.69c.11.19.05.44-.14.55l-1.05.61c-.18.11-.43.03-.54-.16l-1.55-2.69Z"/>
  </g>
  <g>
    <path class="cls-1" d="M489.52,386.17c.2.12.44.05.55-.14l.51-.88c.11-.18.36-.25.55-.14l1.08.63c.2.12.26.36.15.54l-.51.88c-.11.18-.03.43.16.54l.91.52c.19.11.26.36.16.54l-.61,1.05c-.11.18-.36.25-.55.14l-12.31-7.11c-.19-.11-.26-.36-.16-.54l.61-1.05c.11-.18.36-.25.55-.14l8.92,5.15Z"/>
    <path class="cls-1" d="M484.69,400.27c-.19-.11-.43-.06-.55.14l-.5.87c-.12.2-.34.26-.55.14l-9.1-5.25c-.2-.12-.27-.34-.15-.54l.5-.87c.11-.2.04-.43-.15-.54l-.91-.52c-.19-.11-.26-.36-.16-.54l2.41-4.17c.11-.18.36-.25.55-.14l.91.52c.19.11.44.05.55-.14l.51-.88c.11-.18.34-.24.54-.12l9.1,5.25c.2.12.27.34.16.53l-.51.88c-.11.18-.04.43.15.54l.91.52c.19.11.26.36.16.54l-2.41,4.17c-.11.18-.36.25-.55.14l-.91-.52ZM483.91,399.58c.19.11.43.06.55-.14l2.2-3.82c.11-.18.04-.43-.15-.54l-8.74-5.05c-.19-.11-.44-.05-.55.14l-2.2,3.82c-.12.2-.03.43.15.54l8.74,5.05ZM478.99,394.91c-.19-.11-.26-.36-.15-.54l.61-1.05c.11-.18.36-.25.55-.14l2.69,1.55c.19.11.26.36.16.54l-.61,1.05c-.11.18-.36.25-.55.14l-2.69-1.55Z"/>
  </g>
</svg>