<?xml version="1.0" encoding="UTF-8"?>
<svg id="_レイヤー_1" data-name="レイヤー 1" xmlns="http://www.w3.org/2000/svg" xmlns:xlink="http://www.w3.org/1999/xlink" viewBox="0 0 368.89 1575.96">
  <defs>
    <style>
      .cls-1, .cls-2, .cls-3 {
        fill: none;
      }

      .cls-4, .cls-5 {
        fill: #ebe596;
      }

      .cls-4, .cls-5, .cls-6, .cls-7, .cls-8, .cls-9, .cls-10, .cls-2, .cls-11, .cls-12, .cls-13, .cls-3, .cls-14, .cls-15, .cls-16, .cls-17 {
        stroke-linecap: round;
        stroke-linejoin: round;
      }

      .cls-4, .cls-5, .cls-6, .cls-7, .cls-8, .cls-9, .cls-10, .cls-12, .cls-18, .cls-13, .cls-3, .cls-14, .cls-15, .cls-17 {
        stroke: #000;
      }

      .cls-4, .cls-6, .cls-8, .cls-11, .cls-18, .cls-3, .cls-14, .cls-17 {
        stroke-width: 1.4px;
      }

      .cls-5 {
        stroke-width: .93px;
      }

      .cls-6, .cls-7, .cls-10 {
        fill: #ae9bf7;
      }

      .cls-7 {
        stroke-width: 2.08px;
      }

      .cls-8 {
        fill: #aeab52;
      }

      .cls-9 {
        fill: #e5ce51;
        stroke-width: 1.08px;
      }

      .cls-19 {
        fill: #ee8400;
      }

      .cls-2 {
        stroke: #ffc900;
        stroke-width: 3px;
      }

      .cls-11 {
        fill: #7a68ff;
        stroke: #474747;
      }

      .cls-20 {
        fill: #ffc900;
      }

      .cls-12 {
        stroke-width: 1.12px;
      }

      .cls-12, .cls-18 {
        fill: #ff6e68;
      }

      .cls-18 {
        stroke-miterlimit: 10;
      }

      .cls-13 {
        fill: #e5b951;
        stroke-width: .65px;
      }

      .cls-14, .cls-15 {
        fill: #fff;
      }

      .cls-15 {
        stroke-width: 1.41px;
      }

      .cls-21 {
        clip-path: url(#clippath);
      }

      .cls-16 {
        fill: #ab94ff;
        stroke: #6b6876;
        stroke-width: 1.02px;
      }

      .cls-17 {
        fill: #7a68b3;
      }
    </style>
    <clipPath id="clippath">
      <rect class="cls-1" x="-.09" width="369.07" height="1576.73"/>
    </clipPath>
  </defs>
  <g class="cls-21">
    <g>
      <rect class="cls-6" x="199.61" y="1391.62" width="200.36" height="307.81"/>
      <rect class="cls-14" x="221.15" y="228.19" width="158.4" height="539.44"/>
      <rect class="cls-17" x="283.44" y="-14.9" width="21.75" height="500.63"/>
      <path class="cls-18" d="M521.45,1445.84c-14.86,0-14.86,9.31-29.73,9.31s-14.86-9.31-29.73-9.31-14.86,9.31-29.72,9.31-14.86-9.31-29.72-9.31-14.86,9.31-29.72,9.31-14.86-9.31-29.72-9.31-14.86,9.31-29.72,9.31-14.86-9.31-29.72-9.31-14.86,9.31-29.72,9.31-14.86-9.31-29.72-9.31-14.86,9.31-29.72,9.31-14.86-9.31-29.72-9.31-14.86,9.31-29.72,9.31-14.86-9.31-29.72-9.31-14.86,9.31-29.72,9.31-14.86-9.31-29.72-9.31h-1.1l3.67-8.25,49.15-130.48,420.76,18.39,3.07,120.35Z"/>
      <rect class="cls-9" x="238.22" y="244.61" width="19.65" height="523.02"/>
      <rect class="cls-13" x="250.83" y="244.61" width="7.03" height="523.02"/>
      <rect class="cls-9" x="270.91" y="244.61" width="19.65" height="523.02"/>
      <rect class="cls-9" x="303.6" y="244.61" width="19.65" height="523.02"/>
      <rect class="cls-9" x="336.29" y="244.61" width="19.65" height="523.02"/>
      <rect class="cls-9" x="368.98" y="244.61" width="19.65" height="523.02"/>
      <rect class="cls-13" x="349.63" y="244.61" width="7.03" height="523.02"/>
      <rect class="cls-13" x="316.58" y="244.61" width="7.03" height="523.02"/>
      <rect class="cls-7" x="221.15" y="770.75" width="200.88" height="125.13"/>
      <rect class="cls-12" x="235.65" y="770.75" width="186.38" height="125.13"/>
      <rect class="cls-8" x="298.15" y="503.61" width="27.87" height="160.11" transform="translate(895.75 271.57) rotate(90)"/>
      <rect class="cls-8" x="298.15" y="216.57" width="27.87" height="160.11" transform="translate(608.72 -15.46) rotate(90)"/>
      <path class="cls-12" d="M213.18-7.48v245.16h10.01c1.32.84,2.29,1.82,2.29,3.25,0,2.05-2.38,4.52-4.48,6.7-2.13,2.22-3.98,4.13-3.8,5.79.07.62.42,1.16,1.04,1.58,3.55,2.39,6.47-.63,9.3-3.55,2.43-2.51,4.95-5.11,8.11-5.11,3.41,0,5.11,2.23,6.9,4.6,1.85,2.43,3.76,4.94,7.6,4.94s5.75-2.51,7.6-4.94c1.8-2.36,3.49-4.6,6.9-4.6s5.11,2.23,6.9,4.6c1.85,2.43,3.76,4.94,7.6,4.94s5.75-2.51,7.6-4.94c1.8-2.36,3.49-4.6,6.9-4.6s5.11,2.23,6.9,4.6c1.85,2.43,3.76,4.94,7.6,4.94s5.75-2.51,7.6-4.94c1.8-2.36,3.49-4.6,6.9-4.6s5.11,2.23,6.9,4.6c1.85,2.43,3.76,4.94,7.6,4.94s5.75-2.51,7.6-4.94c1.8-2.36,3.49-4.6,6.9-4.6s5.11,2.23,6.9,4.6c1.85,2.43,3.76,4.94,7.6,4.94s5.75-2.51,7.6-4.94c1.8-2.36,3.49-4.6,6.9-4.6s5.11,2.23,6.9,4.6c1.85,2.43,3.76,4.94,7.6,4.94s5.75-2.51,7.6-4.94c1.8-2.36,3.49-4.6,6.9-4.6s5.11,2.23,6.9,4.6c1.85,2.43,3.76,4.94,7.6,4.94s5.75-2.51,7.6-4.94c1.8-2.36,3.49-4.6,6.9-4.6,3.16,0,5.67,2.6,8.11,5.1,2.83,2.92,5.75,5.93,9.3,3.55.78-.52,1.18-1.08,1.22-1.71.09-1.2-1.17-2.34-2.76-3.77-1.98-1.79-4.44-4.01-5.49-7.24-.59-1.82,1.13-3.2,3.24-4.58h6.09V-7.48h-245.16Z"/>
      <rect class="cls-11" x="182.11" y="228.19" width="129.52" height="408.34"/>
      <rect class="cls-11" x="199.61" y="129.25" width="112.02" height="60.23"/>
      <rect class="cls-16" x="183.2" y="229.14" width="8.48" height="406.5"/>
      <rect class="cls-11" x="199.61" y="-27.97" width="112.02" height="108.13"/>
      <rect class="cls-14" x="199.61" y="109.76" width="112.02" height="19.4"/>
      <rect class="cls-15" x="181.93" y="227.87" width="130.16" height="19.4"/>
      <path class="cls-19" d="M213.07,914.3l-180.49,498.13h1.1c14.86,0,14.86,9.31,29.72,9.31s14.86-9.31,29.72-9.31,14.86,9.31,29.72,9.31,14.86-9.31,29.72-9.31,14.86,9.31,29.72,9.31,14.86-9.31,29.72-9.31,14.86,9.31,29.72,9.31,14.86-9.31,29.72-9.31,14.86,9.31,29.72,9.31,14.86-9.31,29.72-9.31,14.86,9.31,29.72,9.31,14.86-9.31,29.72-9.31,14.86,9.31,29.72,9.31,14.86-9.31,29.72-9.31,14.86,9.31,29.73,9.31,14.86-9.31,29.73-9.31v-498.98l-296.17.85Z"/>
      <rect class="cls-5" x="211.37" y="745.98" width="176.85" height="7.85"/>
      <rect class="cls-4" x="211.37" y="758.64" width="176.85" height="17.97"/>
      <path class="cls-3" d="M199.61,956.94L30.88,1412.01h1.1c14.86,0,14.86,9.31,29.72,9.31s14.86-9.31,29.72-9.31,14.86,9.31,29.72,9.31,14.86-9.31,29.72-9.31,14.86,9.31,29.72,9.31,14.86-9.31,29.72-9.31,14.86,9.31,29.72,9.31,14.86-9.31,29.72-9.31,14.86,9.31,29.72,9.31,14.86-9.31,29.72-9.31,14.86,9.31,29.72,9.31,14.86-9.31,29.72-9.31,14.86,9.31,29.72,9.31,14.86-9.31,29.72-9.31,14.86,9.31,29.73,9.31,14.86-9.31,29.73-9.31"/>
      <g>
        <path class="cls-2" d="M207.77,567.89c6.28.93,12.79.33,18.8-1.74,3.03-1.05,6.33-2.97,6.72-6.16.59-4.85-6.74-7.38-10.62-4.41-3.88,2.96-4.62,8.49-4.33,13.37.34,5.58,2.89,12.3,8.46,12.8,2.45.22,4.82-.91,6.93-2.17,3.55-2.12,6.81-4.68,10.06-7.24,5.5-4.33,11-8.66,16.5-12.98-1.44-1.41-3.8-1.78-5.6-.87-2.14-4.76.84-11.08,5.86-12.46,5.03-1.39,10.82,2.52,11.42,7.7.46,3.96-1.7,7.75-4.21,10.85-2.95,3.65-6.5,6.83-10.45,9.36-3.2,2.05-7.03,3.72-10.72,2.8-3.69-.92-7.3-3.77-4.35-8.69,2.95-4.91,25.27-3.49,27.53-2.28,2.76,1.48,4.68,4.17,6.06,6.98,3.06,6.22,3.86,13.91.52,19.98-3.34,6.07-11.48,9.57-17.65,6.43s-7.52-13.38-1.64-17.04c2.41-1.5,5.38-1.72,8.22-1.79,8.24-.18,17.25.97,23.01,6.85"/>
        <path class="cls-2" d="M252.58,340.78s0-36.84,0-45.74c0-1.17.98-1.52,1.16-1.58,1.54-.56,30.82,22.61,30.87,1.98.12-50.44-65.82,34.58-65.77-2.11.05-32.37,27.81-6.97,27.81-6.97"/>
        <path class="cls-2" d="M227.89,387.28s-8.16-2.13-8.16-10.64,9.36-21.64,14.97-13.12c5.6,8.51,4.9,64.55-3.62,57.81-8.51-6.74-11.35-12.06-7.45-16.67s47.53-51.27,56.04-43.9c8.51,7.37-2.13,33.26-15.96,34.33-13.83,1.06-6.38-14.19-.35-17.38s19.47,15.25,19.47,30.15-26.56,19.35-37.56,9.32c-10.99-10.03,14.9-38.14,42.21,5.39"/>
        <path class="cls-2" d="M232.19,482.87c-.54-1.9,0-5.98,5.43-6.18,7.08-.26,6.83,6.32,6.83,6.32,0,12.5-23.82,13.75-23.82,0s21.75-17.45,21.75-17.45l-26.6-4.63c0-1.82,71.91-1.82,71.91,0l-26.6,4.63s21.75,3.71,21.75,17.45-23.82,12.5-23.82,0c0,0-.26-6.32,6.83-6.32,0,0-14.24-8.81-14.11-5.81s0,54.6,0,54.6"/>
      </g>
      <rect class="cls-20" x="216.3" y="139.73" width="22.83" height="8.73"/>
      <rect class="cls-20" x="208.56" y="168.34" width="38.32" height="8.73"/>
      <rect class="cls-20" x="227.71" y="154.04" width="19.16" height="8.73"/>
      <rect class="cls-20" x="281.07" y="155" width="19.16" height="8.73"/>
      <rect class="cls-20" x="262.88" y="169.79" width="19.16" height="8.73"/>
      <rect class="cls-20" x="246.93" y="155" width="38.32" height="8.73" transform="translate(425.45 -106.72) rotate(90)"/>
      <rect class="cls-20" x="276.71" y="155" width="38.32" height="8.73" transform="translate(455.23 -136.5) rotate(90)"/>
      <rect class="cls-14" x="123.8" y="896.19" width="135.78" height="16.72" transform="translate(1096.24 712.86) rotate(90)"/>
      <rect class="cls-10" x="199.61" y="888.08" width="200.36" height="31.44"/>
    </g>
  </g>
</svg>